<svg width="18" height="14" viewBox="0 0 18 14" fill="none" xmlns="http://www.w3.org/2000/svg">
<path fill-rule="evenodd" clip-rule="evenodd" d="M17.6588 1.54544C17.7669 1.46147 17.8526 1.36178 17.9112 1.25204C17.9697 1.1423 17.9999 1.02466 18 0.905851C18.0001 0.787039 17.9701 0.669376 17.9117 0.559581C17.8534 0.449785 17.7678 0.350006 17.6598 0.265941C17.5519 0.181877 17.4237 0.115173 17.2826 0.0696381C17.1415 0.0241032 16.9903 0.000629137 16.8375 0.000556112C16.6847 0.000483087 16.5335 0.0238125 16.3923 0.0692125C16.2511 0.114612 16.1228 0.181194 16.0148 0.265155L8.99985 5.72129L1.98696 0.265155C1.76868 0.0953789 1.47263 -1.78888e-09 1.16393 0C0.855238 1.78888e-09 0.559187 0.0953789 0.340908 0.265155C0.122628 0.434931 2.29995e-09 0.665196 0 0.905295C-2.29995e-09 1.14539 0.122628 1.37566 0.340908 1.54544L7.35582 7L0.340908 12.4546C0.232827 12.5386 0.147092 12.6384 0.0885989 12.7483C0.0301058 12.8581 0 12.9758 0 13.0947C0 13.2136 0.0301058 13.3313 0.0885989 13.4411C0.147092 13.551 0.232827 13.6508 0.340908 13.7348C0.559187 13.9046 0.855238 14 1.16393 14C1.31678 14 1.46813 13.9766 1.60935 13.9311C1.75056 13.8856 1.87888 13.8189 1.98696 13.7348L8.99985 8.27871L16.0148 13.7348C16.233 13.9044 16.529 13.9996 16.8375 13.9994C17.146 13.9993 17.4418 13.9038 17.6598 13.7341C17.8778 13.5643 18.0002 13.3341 18 13.0941C17.9998 12.8542 17.8771 12.6241 17.6588 12.4546L10.6439 7L17.6588 1.54544Z" fill="#333333"/>
</svg>
