<svg width="21" height="24" viewBox="0 0 21 24" fill="none" xmlns="http://www.w3.org/2000/svg">
<g clip-path="url(#clip0_497_979)">
<path d="M4.5 6C4.5 7.5913 5.13214 9.11742 6.25736 10.2426C7.38258 11.3679 8.9087 12 10.5 12C12.0913 12 13.6174 11.3679 14.7426 10.2426C15.8679 9.11742 16.5 7.5913 16.5 6C16.5 4.4087 15.8679 2.88258 14.7426 1.75736C13.6174 0.632141 12.0913 0 10.5 0C8.9087 0 7.38258 0.632141 6.25736 1.75736C5.13214 2.88258 4.5 4.4087 4.5 6ZM8.92969 15.3844L9.80156 16.8375L8.24063 22.6453L6.55313 15.7594C6.45938 15.3797 6.09375 15.1312 5.71406 15.2297C2.43281 16.05 0 19.0219 0 22.5609C0 23.3578 0.646875 24 1.43906 24H19.5609C20.3578 24 21 23.3531 21 22.5609C21 19.0219 18.5672 16.05 15.2859 15.2297C14.9062 15.1359 14.5406 15.3844 14.4469 15.7594L12.7594 22.6453L11.1984 16.8375L12.0703 15.3844C12.3703 14.8828 12.0094 14.25 11.4281 14.25H9.57656C8.99531 14.25 8.63438 14.8875 8.93438 15.3844H8.92969Z" fill="#333333"/>
</g>
<defs>
<clipPath id="clip0_497_979">
<rect width="21" height="24" fill="white"/>
</clipPath>
</defs>
</svg>
