<svg width="25" height="23" viewBox="0 0 25 23" fill="none" xmlns="http://www.w3.org/2000/svg">
<path d="M9.5332 2.14453C5.6562 2.14467 2.43457 4.97697 2.43457 8.59082C2.43479 12.2045 5.65633 15.036 9.5332 15.0361C13.4102 15.0361 16.6316 12.2046 16.6318 8.59082C16.6318 4.97688 13.4103 2.14453 9.5332 2.14453ZM16.6318 15.2578L16.4736 15.1094L16.0771 14.7393L15.7666 14.4482L15.4297 14.709C14.4219 15.4907 13.2312 16.0649 11.9424 16.3867C10.6537 16.7085 9.30119 16.7703 7.98242 16.5664L7.98145 16.5654L7.61914 16.5039C3.90362 15.791 1.0217 12.9487 0.571289 9.60742L0.570312 9.60449L0.521484 9.14746C0.439919 8.08006 0.595055 7.00647 0.981445 5.98926C1.42316 4.82641 2.15645 3.76494 3.12891 2.88867C4.10137 2.01249 5.28704 1.34541 6.59668 0.941406C7.90672 0.537365 9.3042 0.407653 10.6797 0.564453L10.6816 0.56543C14.599 0.994116 17.7982 3.78796 18.4414 7.21582V7.21777C18.6636 8.38471 18.5974 9.58146 18.2461 10.7236C17.8947 11.866 17.2661 12.9286 16.4014 13.834L16.0391 14.2129L16.4346 14.5566L16.8457 14.9141L16.9863 15.0361H18.1387L24.2139 20.5361L24.2812 20.6035C24.5935 20.9467 24.5717 21.441 24.2148 21.7627C23.8039 22.133 23.1102 22.1328 22.6992 21.7627L16.6318 16.2949V15.2578Z" fill="#8C8C8C" stroke="#DFDFDF"/>
</svg>
