<svg width="24" height="24" viewBox="0 0 24 24" fill="none" xmlns="http://www.w3.org/2000/svg">
<path d="M20.3433 17.1563H18.6956C18.5831 17.1563 18.4777 17.2055 18.4074 17.2922C18.2433 17.4914 18.0675 17.6836 17.8824 17.8664C17.1251 18.6245 16.2281 19.2286 15.2409 19.6453C14.2183 20.0773 13.1191 20.2989 12.0089 20.2969C10.8863 20.2969 9.79876 20.0766 8.77689 19.6453C7.78976 19.2286 6.89275 18.6245 6.13548 17.8664C5.37686 17.111 4.77194 16.2155 4.35423 15.2297C3.92064 14.2078 3.70267 13.1227 3.70267 12C3.70267 10.8774 3.92298 9.79222 4.35423 8.77035C4.77142 7.78363 5.37142 6.89535 6.13548 6.13363C6.89954 5.37191 7.78783 4.77191 8.77689 4.35472C9.79876 3.92347 10.8863 3.70316 12.0089 3.70316C13.1316 3.70316 14.2191 3.92113 15.2409 4.35472C16.23 4.77191 17.1183 5.37191 17.8824 6.13363C18.0675 6.31879 18.241 6.51097 18.4074 6.70785C18.4777 6.79457 18.5855 6.84379 18.6956 6.84379H20.3433C20.4909 6.84379 20.5824 6.67972 20.5003 6.5555C18.7027 3.76175 15.5574 1.91254 11.9831 1.92191C6.36751 1.93597 1.86517 6.49457 1.92142 12.1032C1.97767 17.6227 6.47298 22.0782 12.0089 22.0782C15.5738 22.0782 18.705 20.2313 20.5003 17.4446C20.58 17.3203 20.4909 17.1563 20.3433 17.1563ZM22.4269 11.8524L19.1011 9.22738C18.9769 9.12894 18.7964 9.218 18.7964 9.37504V11.1563H11.437C11.3339 11.1563 11.2495 11.2407 11.2495 11.3438V12.6563C11.2495 12.7594 11.3339 12.8438 11.437 12.8438H18.7964V14.625C18.7964 14.7821 18.9792 14.8711 19.1011 14.7727L22.4269 12.1477C22.4493 12.1302 22.4674 12.1077 22.4799 12.0822C22.4924 12.0566 22.4988 12.0285 22.4988 12C22.4988 11.9716 22.4924 11.9435 22.4799 11.9179C22.4674 11.8923 22.4493 11.8699 22.4269 11.8524Z" fill="#333333"/>
</svg>
