<svg width="24" height="24" viewBox="0 0 24 24" fill="none" xmlns="http://www.w3.org/2000/svg">
<g clip-path="url(#clip0_497_1014)">
<path d="M2.5 13C5.43 9.5205 8.092 7.517 9.3065 6.694C9.7035 6.4245 10.227 6.5125 10.5285 6.8855C11.1011 7.59891 11.653 8.32872 12.1835 9.074C12.5875 9.64 13.44 9.658 13.8875 9.126C15.9555 6.67 18.7505 4.25 18.7505 4.25" stroke="#333333" stroke-width="1.5" stroke-linecap="round" stroke-linejoin="round"/>
<path d="M21.188 5.6619C21.52 4.0444 21.5165 2.6184 21.4885 1.9469C21.4848 1.83281 21.4378 1.7244 21.3571 1.64363C21.2764 1.56286 21.1681 1.51577 21.054 1.5119C19.8082 1.46562 18.5612 1.56648 17.339 1.8124C16.9625 1.8894 16.838 2.3499 17.109 2.6214L20.379 5.8914C20.651 6.1629 21.111 6.0379 21.188 5.6619ZM2.6335 22.4804C2.0695 22.4619 1.6375 22.1209 1.5805 21.5599C1.535 21.1199 1.5 20.4664 1.5 19.5004C1.5 18.5344 1.536 17.8804 1.58 17.4409C1.6375 16.8799 2.0695 16.5389 2.6335 16.5199C2.967 16.5089 3.4135 16.5004 4 16.5004C4.5865 16.5004 5.033 16.5089 5.3665 16.5204C5.9305 16.5389 6.3625 16.8799 6.4195 17.4409C6.4645 17.8809 6.5 18.5344 6.5 19.5004C6.5 20.4664 6.464 21.1204 6.42 21.5599C6.3625 22.1209 5.9305 22.4619 5.3665 22.4809C5.0325 22.4919 4.5865 22.5004 4 22.5004C3.4135 22.5004 2.967 22.4919 2.6335 22.4804ZM18.7785 22.4674C18.1285 22.4274 17.677 21.9584 17.63 21.3089C17.566 20.4284 17.5 18.8339 17.5 16.0004C17.5 13.1669 17.566 11.5724 17.63 10.6919C17.677 10.0424 18.1285 9.5729 18.7785 9.5334C19.0935 9.5139 19.495 9.5004 20 9.5004C20.505 9.5004 20.9065 9.5139 21.2215 9.5334C21.8715 9.5734 22.323 10.0424 22.37 10.6919C22.434 11.5724 22.5 13.1669 22.5 16.0004C22.5 18.8339 22.434 20.4284 22.37 21.3089C22.323 21.9584 21.8715 22.4279 21.2215 22.4674C20.9065 22.4869 20.5055 22.5004 20 22.5004C19.495 22.5004 19.0935 22.4869 18.7785 22.4674ZM10.75 22.4764C10.118 22.4489 9.6565 22.0264 9.6035 21.3964C9.549 20.7474 9.5 19.6934 9.5 18.0004C9.5 16.3074 9.549 15.2534 9.6035 14.6044C9.6565 13.9744 10.118 13.5519 10.7495 13.5244C11.1661 13.5073 11.583 13.4993 12 13.5004C12.521 13.5004 12.931 13.5104 13.25 13.5244C13.882 13.5519 14.3435 13.9744 14.3965 14.6044C14.451 15.2534 14.5 16.3074 14.5 18.0004C14.5 19.6934 14.451 20.7474 14.3965 21.3964C14.3435 22.0264 13.882 22.4489 13.2505 22.4764C12.931 22.4904 12.521 22.5004 12 22.5004C11.5832 22.5014 11.1664 22.4934 10.75 22.4764Z" stroke="#333333" stroke-width="1.5" stroke-linecap="round" stroke-linejoin="round"/>
</g>
<defs>
<clipPath id="clip0_497_1014">
<rect width="24" height="24" fill="white"/>
</clipPath>
</defs>
</svg>
